<svg xmlns="http://www.w3.org/2000/svg" viewBox="0 0 256 168" role="img" aria-labelledby="title desc">
  <title id="title">Serdivan Veteriner Kliniği logosu</title>
  <desc id="desc">Kırmızı ve kahverengi kıvrım içinde siyah kedi ve köpek silüeti.</desc>
  <defs>
    <filter id="softGlow" x="-24%" y="-35%" width="148%" height="170%">
      <feGaussianBlur stdDeviation="7" result="blur"/>
      <feColorMatrix in="blur" type="matrix" values="0.58 0 0 0 0.48  0 0.67 0 0 0.78  0 0 0.9 0 1  0 0 0 0.72 0"/>
      <feMerge>
        <feMergeNode/>
        <feMergeNode in="SourceGraphic"/>
      </feMerge>
    </filter>
    <linearGradient id="redSweep" x1="31" y1="118" x2="131" y2="118" gradientUnits="userSpaceOnUse">
      <stop stop-color="#cf1f25"/>
      <stop offset="0.62" stop-color="#ec6a3f"/>
      <stop offset="1" stop-color="#f3b25d"/>
    </linearGradient>
    <linearGradient id="brownSweep" x1="118" y1="108" x2="223" y2="80" gradientUnits="userSpaceOnUse">
      <stop stop-color="#995f32"/>
      <stop offset="0.55" stop-color="#6b431f"/>
      <stop offset="1" stop-color="#412716"/>
    </linearGradient>
  </defs>
  <g filter="url(#softGlow)">
    <path
      fill="url(#redSweep)"
      d="M30 112c25 29 73 37 112 21 12-5 24-13 35-24-14 38-67 56-112 41-24-8-41-23-50-42-2-5 10-8 15 4Z"
    />
    <path
      fill="url(#brownSweep)"
      d="M139 122c20-21 35-43 51-69 3-5 11-8 17-5 18 8 31 23 34 42 4 24-11 44-35 51-24 8-50 2-67-19Z"
    />
    <path
      fill="#f8f4ee"
      d="M81 35c12-8 29-8 42 0 16 10 24 27 21 45 17 2 31 10 41 22-10 20-29 34-52 39-31 7-65-1-90-21 14-16 32-26 52-29-10-18-14-39-14-56Z"
    />
    <path
      fill="#111313"
      d="M100 32c9-9 23-11 34-5 9 5 14 14 14 25 0 8-4 16-10 21 5 6 12 10 20 11 10 2 21-3 31-13-1 20-16 36-36 39-17 2-34-4-45-17-6 3-14 2-19-3-7-6-9-16-4-24 4-7 12-10 20-8-9-10-11-19-5-26Z"
    />
    <path
      fill="#111313"
      d="M87 84c-9 2-18 9-25 20 14 7 31 9 47 5-11-7-18-15-22-25Z"
    />
    <path
      fill="#111313"
      d="M121 28c-3-12 4-23 15-26 0 12-4 22-15 26Z"
    />
    <path
      fill="#111313"
      d="M142 28c4-10 14-16 25-13-5 10-13 16-25 13Z"
    />
    <circle cx="121" cy="47" r="4.5" fill="#f7f7f4"/>
    <path
      fill="none"
      stroke="#111313"
      stroke-linecap="round"
      stroke-width="8"
      d="M89 94c29 22 72 24 101 2"
    />
  </g>
</svg>
