<svg xmlns="http://www.w3.org/2000/svg" viewBox="0 0 260 170" role="img" aria-labelledby="title desc">
  <title id="title">Serdivan Veteriner Kliniği logosu</title>
  <desc id="desc">Kırmızı hilal üzerinde solda köpek gölgesi, sağda beyaz kedi silüeti.</desc>
  <defs>
    <filter id="logoGlow" x="-18%" y="-28%" width="136%" height="156%">
      <feGaussianBlur stdDeviation="4" result="blur"/>
      <feColorMatrix
        in="blur"
        type="matrix"
        values="0.44 0 0 0 0.38  0 0.54 0 0 0.62  0 0 0.82 0 0.95  0 0 0 0.48 0"
      />
      <feMerge>
        <feMergeNode/>
        <feMergeNode in="SourceGraphic"/>
      </feMerge>
    </filter>
  </defs>

  <g filter="url(#logoGlow)">
    <path
      fill="#d81f2d"
      d="M26 104C27 62 59 30 105 22 62 45 49 94 76 121c35 35 106 33 153 3-35 41-111 55-162 26-27-15-42-30-41-46Z"
    />

    <path
      fill="#fbfcf8"
      d="M169 54c1-12 8-25 21-34 3 15 12 25 25 30 19 7 31 26 29 47-2 25-19 42-45 49-29 8-63 0-83-20 25 9 57 5 76-11 16-14 22-35 12-53-9-17-23-15-35-8Z"
    />
    <path
      fill="#fbfcf8"
      d="M154 75c8-18 25-31 46-32 3 13 17 21 27 29 12 10 15 29 6 44-18 30-72 33-104 9 15-11 19-32 25-50Z"
    />
    <path
      fill="#fbfcf8"
      d="M190 23c-14 12-20 24-17 39l31-13c-9-6-13-15-14-26Z"
    />

    <path
      fill="#5f6a6c"
      d="M72 45c18-23 55-27 77-8 18 16 21 44 6 63-17 21-51 24-75 6-22-16-27-39-8-61Z"
    />
    <path
      fill="#313a3b"
      d="M102 33c13-11 31-12 45-2-9 9-21 12-34 8-4 16-17 26-34 29 1-15 9-27 23-35Z"
    />
    <path
      fill="#313a3b"
      d="M72 83c17 11 38 14 58 6 11-4 20-12 26-22 10 20 4 44-16 58-26 18-67 8-80-21-3-7 2-16 12-21Z"
      opacity="0.88"
    />
    <path
      fill="none"
      stroke="#313a3b"
      stroke-linecap="round"
      stroke-width="8"
      d="M84 62c14 7 30 7 44-1"
    />
  </g>
</svg>
