<svg xmlns="http://www.w3.org/2000/svg" viewBox="0 0 260 170" role="img" aria-labelledby="title desc">
  <title id="title">Serdivan Veteriner Kliniği logosu</title>
  <desc id="desc">Kırmızı hilal üzerinde gri köpek, koyu silüet ve beyaz kedi figürleri.</desc>
  <defs>
    <filter id="coolGlow" x="-18%" y="-28%" width="136%" height="156%">
      <feGaussianBlur stdDeviation="4.5" result="blur"/>
      <feColorMatrix
        in="blur"
        type="matrix"
        values="0.38 0 0 0 0.38  0 0.52 0 0 0.60  0 0 0.78 0 0.94  0 0 0 0.55 0"
      />
      <feMerge>
        <feMergeNode/>
        <feMergeNode in="SourceGraphic"/>
      </feMerge>
    </filter>
  </defs>

  <g filter="url(#coolGlow)">
    <path
      fill="#d91f2e"
      d="M28 107C28 62 62 29 105 22 58 45 48 103 87 130c35 24 94 20 137-7-35 42-110 55-159 27-24-14-37-28-37-43Z"
    />
    <path
      fill="#f5f7f4"
      d="M128 126c18 13 50 19 76 7 27-12 42-37 34-64-4-14-15-25-30-30-8-3-16-11-18-21-13 8-19 21-16 34-16 5-29 16-35 31-7 17-5 31-11 43Z"
    />
    <path
      fill="#f5f7f4"
      d="M187 44c18 12 33 30 36 52 2 19-8 33-27 39-25 8-52-1-68-21 24 8 53 5 70-12 14-14 15-36-11-58Z"
      opacity="0.92"
    />
    <path
      fill="#293233"
      d="M76 41c18-15 43-18 62-6 18 11 27 32 21 52-3 11-11 21-22 28-22 14-52 11-70-8-16-18-13-48 9-66Z"
    />
    <path
      fill="#647072"
      d="M67 49c15-22 48-27 68-10 15 12 19 34 10 50-8 15-25 23-43 20-9-2-17-6-24-13-10-11-15-31-11-47Z"
    />
    <path
      fill="#293233"
      d="M99 37c12-9 28-10 39-2-7 8-17 11-29 8-3 14-13 23-27 27 0-14 6-26 17-33Z"
    />
    <path
      fill="#293233"
      d="M115 84c15 21 46 28 72 16-14 26-47 39-77 28-22-8-37-26-42-48 16 7 32 9 47 4Z"
    />
    <path
      fill="#202829"
      d="M141 61c7 11 17 19 30 23-9 13-25 20-41 17-15-3-27-13-32-27 16 5 31 1 43-13Z"
    />
    <path
      fill="none"
      stroke="#202829"
      stroke-linecap="round"
      stroke-width="9"
      d="M82 60c15 7 29 7 42-1"
    />
    <path
      fill="none"
      stroke="#202829"
      stroke-linecap="round"
      stroke-width="7"
      d="M89 82c12 8 28 9 43 2"
    />
  </g>
</svg>
